<?xml version="1.0" encoding="UTF-8" standalone="no"?>
<!-- Created with Inkscape (http://www.inkscape.org/) -->

<svg
   xmlns:dc="http://purl.org/dc/elements/1.1/"
   xmlns:cc="http://creativecommons.org/ns#"
   xmlns:rdf="http://www.w3.org/1999/02/22-rdf-syntax-ns#"
   xmlns:svg="http://www.w3.org/2000/svg"
   xmlns="http://www.w3.org/2000/svg"
   xmlns:sodipodi="http://sodipodi.sourceforge.net/DTD/sodipodi-0.dtd"
   xmlns:inkscape="http://www.inkscape.org/namespaces/inkscape"
   width="85.280876mm"
   height="70.817261mm"
   viewBox="0 0 85.280876 70.817261"
   version="1.1"
   id="svg4626"
   inkscape:version="0.92.3 (2405546, 2018-03-11)"
   sodipodi:docname="cloud.svg">
  <defs
     id="defs4620" />
  <sodipodi:namedview
     id="base"
     pagecolor="#ffffff"
     bordercolor="#666666"
     borderopacity="1.0"
     inkscape:pageopacity="0.0"
     inkscape:pageshadow="2"
     inkscape:zoom="2.8"
     inkscape:cx="190.20099"
     inkscape:cy="150.99364"
     inkscape:document-units="mm"
     inkscape:current-layer="layer1"
     showgrid="false"
     inkscape:snap-bbox="true"
     inkscape:bbox-paths="true"
     inkscape:bbox-nodes="true"
     inkscape:snap-bbox-edge-midpoints="true"
     inkscape:snap-bbox-midpoints="true"
     inkscape:snap-object-midpoints="true"
     fit-margin-top="0"
     fit-margin-left="0"
     fit-margin-right="0"
     fit-margin-bottom="0"
     inkscape:window-width="3812"
     inkscape:window-height="2372"
     inkscape:window-x="12"
     inkscape:window-y="12"
     inkscape:window-maximized="1" />
  <metadata
     id="metadata4623">
    <rdf:RDF>
      <cc:Work
         rdf:about="">
        <dc:format>image/svg+xml</dc:format>
        <dc:type
           rdf:resource="http://purl.org/dc/dcmitype/StillImage" />
        <dc:title></dc:title>
      </cc:Work>
    </rdf:RDF>
  </metadata>
  <g
     inkscape:label="Layer 1"
     inkscape:groupmode="layer"
     id="layer1"
     transform="translate(-22.489583,-83.213264)">
    <path
       style="fill:none;stroke:#000000;stroke-width:2;stroke-linecap:butt;stroke-linejoin:miter;stroke-miterlimit:4;stroke-dasharray:none;stroke-opacity:1"
       d="M 27.734003,148.7861 48.342374,112.11631"
       id="path5374"
       inkscape:connector-curvature="0"
       sodipodi:nodetypes="cc" />
    <path
       style="fill:none;stroke:#000000;stroke-width:2;stroke-linecap:butt;stroke-linejoin:miter;stroke-miterlimit:4;stroke-dasharray:none;stroke-opacity:1"
       d="M 46.432014,148.7861 56.727956,112.11631"
       id="path5376"
       inkscape:connector-curvature="0"
       sodipodi:nodetypes="cc" />
    <path
       style="fill:none;stroke:#000000;stroke-width:2;stroke-linecap:butt;stroke-linejoin:miter;stroke-miterlimit:4;stroke-dasharray:none;stroke-opacity:1"
       d="M 65.13002,148.7861 65.11354,112.11631"
       id="path5378"
       inkscape:connector-curvature="0"
       sodipodi:nodetypes="cc" />
    <path
       style="fill:none;stroke:#000000;stroke-width:2;stroke-linecap:butt;stroke-linejoin:miter;stroke-miterlimit:4;stroke-dasharray:none;stroke-opacity:1"
       d="M 83.82804,148.7861 73.499119,112.11631"
       id="path5380"
       inkscape:connector-curvature="0"
       sodipodi:nodetypes="cc" />
    <path
       style="fill:none;stroke:#000000;stroke-width:2;stroke-linecap:butt;stroke-linejoin:miter;stroke-miterlimit:4;stroke-dasharray:none;stroke-opacity:1"
       d="M 102.52604,148.7861 81.884701,112.11631"
       id="path5382"
       inkscape:connector-curvature="0"
       sodipodi:nodetypes="cc" />
    <g
       id="g4709"
       transform="matrix(0.09398331,0,0,0.09383566,41.070294,74.205041)">
	<path
   inkscape:connector-curvature="0"
   d="m 320,128 c 52.562,0 95.375,42.438 96,94.813 -0.25,1.938 -0.438,3.875 -0.5,5.875 l -0.812,23.5 22.25,7.75 C 462.688,268.906 480,293.062 480,320 c 0,35.312 -28.688,64 -64,64 H 96 c -35.281,0 -64,-28.688 -64,-64 0,-34.938 28.188,-63.438 63,-64 1.5,0.219 3.063,0.406 4.625,0.5 l 24.313,1.594 8,-22.969 C 140.938,209.313 165.063,192 192,192 c 3.125,0 6.563,0.375 11.188,1.188 l 22.406,4.031 11.156,-19.844 C 253.875,146.938 285.75,128 320,128 m 0,-32 C 272.062,96 230.781,122.688 208.844,161.688 203.375,160.719 197.781,160 192,160 150.062,160 114.781,187.063 101.719,224.563 99.813,224.438 97.969,224 96,224 43,224 0,267 0,320 c 0,53 43,96 96,96 h 320 c 53,0 96,-43 96,-96 0,-41.938 -27.062,-77.25 -64.562,-90.313 C 447.5,227.75 448,225.938 448,224 448,153.313 390.688,96 320,96 Z"
   id="path4707" />

</g>
    <g
       id="g4711"
       transform="matrix(0.09398331,0,0,0.09383566,41.070294,74.205041)">
</g>
    <g
       id="g4713"
       transform="matrix(0.09398331,0,0,0.09383566,41.070294,74.205041)">
</g>
    <g
       id="g4715"
       transform="matrix(0.09398331,0,0,0.09383566,41.070294,74.205041)">
</g>
    <g
       id="g4717"
       transform="matrix(0.09398331,0,0,0.09383566,41.070294,74.205041)">
</g>
    <g
       id="g4719"
       transform="matrix(0.09398331,0,0,0.09383566,41.070294,74.205041)">
</g>
    <g
       id="g4721"
       transform="matrix(0.09398331,0,0,0.09383566,41.070294,74.205041)">
</g>
    <g
       id="g4723"
       transform="matrix(0.09398331,0,0,0.09383566,41.070294,74.205041)">
</g>
    <g
       id="g4725"
       transform="matrix(0.09398331,0,0,0.09383566,41.070294,74.205041)">
</g>
    <g
       id="g4727"
       transform="matrix(0.09398331,0,0,0.09383566,41.070294,74.205041)">
</g>
    <g
       id="g4729"
       transform="matrix(0.09398331,0,0,0.09383566,41.070294,74.205041)">
</g>
    <g
       id="g4731"
       transform="matrix(0.09398331,0,0,0.09383566,41.070294,74.205041)">
</g>
    <g
       id="g4733"
       transform="matrix(0.09398331,0,0,0.09383566,41.070294,74.205041)">
</g>
    <g
       id="g4735"
       transform="matrix(0.09398331,0,0,0.09383566,41.070294,74.205041)">
</g>
    <g
       id="g4737"
       transform="matrix(0.09398331,0,0,0.09383566,41.070294,74.205041)">
</g>
    <g
       id="g4739"
       transform="matrix(0.09398331,0,0,0.09383566,41.070294,74.205041)">
</g>
    <circle
       style="opacity:1;fill:#00000f;fill-opacity:1;stroke:none;stroke-width:0.46499997;stroke-miterlimit:4;stroke-dasharray:none;stroke-opacity:1"
       id="path4767"
       cx="27.734003"
       cy="148.7861"
       r="5.2444196" />
    <circle
       style="opacity:1;fill:#00000f;fill-opacity:1;stroke:none;stroke-width:0.46499997;stroke-miterlimit:4;stroke-dasharray:none;stroke-opacity:1"
       id="path4767-7"
       cx="46.432014"
       cy="148.7861"
       r="5.2444196" />
    <circle
       style="opacity:1;fill:#00000f;fill-opacity:1;stroke:none;stroke-width:0.46499997;stroke-miterlimit:4;stroke-dasharray:none;stroke-opacity:1"
       id="path4767-5"
       cx="65.13002"
       cy="148.7861"
       r="5.2444196" />
    <circle
       style="opacity:1;fill:#00000f;fill-opacity:1;stroke:none;stroke-width:0.46499997;stroke-miterlimit:4;stroke-dasharray:none;stroke-opacity:1"
       id="path4767-3"
       cx="83.828041"
       cy="148.7861"
       r="5.2444196" />
    <circle
       style="opacity:1;fill:#00000f;fill-opacity:1;stroke:none;stroke-width:0.46499997;stroke-miterlimit:4;stroke-dasharray:none;stroke-opacity:1"
       id="path4767-56"
       cx="102.52604"
       cy="148.7861"
       r="5.2444196" />
  </g>
</svg>
